<svg width="14" height="15" viewBox="0 0 14 15" fill="none" xmlns="http://www.w3.org/2000/svg">
<path d="M3.12451 12.748L11.0007 12.748L10.1475 13.7151C10.0239 13.8562 9.95442 14.0477 9.95442 14.2473C9.95442 14.4469 10.0239 14.6384 10.1475 14.7795C10.271 14.9207 10.4387 15 10.6135 15C10.7882 15 10.9559 14.9207 11.0795 14.7795L13.0485 12.5307C13.11 12.461 13.1589 12.3781 13.1922 12.2867C13.2255 12.1954 13.2427 12.0974 13.2427 11.9984C13.2427 11.8995 13.2255 11.8015 13.1922 11.7101C13.1589 11.6188 13.11 11.5359 13.0485 11.4662L11.0795 9.21729C11.0185 9.14703 10.9459 9.09126 10.8659 9.0532C10.7859 9.01515 10.7001 8.99555 10.6135 8.99555C10.5268 8.99555 10.441 9.01515 10.361 9.0532C10.2811 9.09126 10.2085 9.14703 10.1475 9.21729C10.0859 9.28698 10.0371 9.36989 10.0038 9.46124C9.97046 9.55259 9.9533 9.65057 9.9533 9.74953C9.9533 9.84849 9.97046 9.94647 10.0038 10.0378C10.0371 10.1292 10.0859 10.2121 10.1475 10.2818L11.0007 11.2488L3.12451 11.2488C2.99004 11.2518 2.85637 11.2245 2.73115 11.1684C2.60592 11.1124 2.49159 11.0287 2.39467 10.9222C2.29776 10.8157 2.22017 10.6885 2.16634 10.5477C2.1125 10.4069 2.08347 10.2554 2.08091 10.1019V8.25027C2.08091 8.05146 2.01176 7.86078 1.88867 7.7202C1.76558 7.57962 1.59863 7.50064 1.42456 7.50064C1.25049 7.50064 1.08354 7.57962 0.96045 7.7202C0.837361 7.86078 0.76821 8.05146 0.76821 8.25027L0.76821 10.1019C0.770785 10.4523 0.833776 10.7988 0.953587 11.1214C1.0734 11.4441 1.24768 11.7366 1.46649 11.9823C1.68529 12.2281 1.94433 12.4222 2.22881 12.5535C2.5133 12.6849 2.81766 12.751 3.12451 12.748ZM2.9276 5.78399C3.05119 5.92515 3.21882 6.00445 3.39361 6.00445C3.5684 6.00445 3.73603 5.92515 3.85962 5.78399C3.98321 5.64283 4.05265 5.45138 4.05265 5.25175C4.05265 5.05212 3.98321 4.86067 3.85962 4.71951L3.00636 3.75249L10.8826 3.75249C11.017 3.74951 11.1507 3.77682 11.2759 3.83285C11.4011 3.88888 11.5155 3.97253 11.6124 4.07904C11.7093 4.18555 11.7869 4.31282 11.8407 4.45358C11.8946 4.59435 11.9236 4.74585 11.9262 4.89943L11.9262 6.75101C11.9262 6.94982 11.9953 7.1405 12.1184 7.28108C12.2415 7.42166 12.4084 7.50064 12.5825 7.50064C12.7566 7.50064 12.9235 7.42166 13.0466 7.28108C13.1697 7.1405 13.2389 6.94982 13.2389 6.75101L13.2389 4.89943C13.2363 4.54897 13.1733 4.20252 13.0535 3.87986C12.9337 3.55721 12.7594 3.26467 12.5406 3.01894C12.3218 2.77322 12.0627 2.57912 11.7783 2.44774C11.4938 2.31636 11.1894 2.25027 10.8826 2.25323L3.00636 2.25323L3.85962 1.28621C3.92114 1.21652 3.96997 1.13362 4.00329 1.04227C4.03661 0.950917 4.05377 0.852936 4.05377 0.753976C4.05377 0.655016 4.03661 0.557035 4.00329 0.465686C3.96997 0.374336 3.92114 0.291428 3.85962 0.22174C3.7986 0.151479 3.72601 0.0957088 3.64603 0.0576515C3.56604 0.0195932 3.48026 0 3.39361 0C3.30696 0 3.22118 0.0195932 3.14119 0.0576515C3.06121 0.0957088 2.98862 0.151479 2.9276 0.22174L0.958551 2.47063C0.897033 2.54032 0.848204 2.62322 0.814882 2.71457C0.78156 2.80592 0.764404 2.9039 0.764404 3.00286C0.764404 3.10182 0.78156 3.1998 0.814882 3.29115C0.848204 3.3825 0.897033 3.46541 0.958551 3.5351L2.9276 5.78399Z" fill="#999999"/>
</svg>
