<svg width="40" height="40" viewBox="0 0 40 40" fill="none" xmlns="http://www.w3.org/2000/svg">
<rect width="40" height="40" rx="14" fill="#F3983A"/>
<path d="M11.3872 7.25562L10.0672 8.57374L12.0312 10.5369L13.3494 9.21874L11.3863 7.25562H11.3872ZM28.6138 7.25562L26.6497 9.21874L27.9688 10.5369L29.9319 8.57468L28.6138 7.25562ZM20 7.84062C19.6906 7.84437 19.3775 7.86218 19.0625 7.90062C19.0531 7.90062 19.0437 7.89874 19.0344 7.90062C15.2319 8.33655 12.2056 11.4087 11.6797 15.1944C11.2597 18.2412 12.5159 21.0041 14.6094 22.7834C15.4657 23.5142 16.0449 24.5171 16.25 25.6241V31.2491H18.3875C18.7137 31.8087 19.3091 32.1866 20 32.1866C20.6909 32.1866 21.2862 31.8087 21.6125 31.2491H23.75V27.4991H23.8381V26.3853C23.8381 25.0109 24.5525 23.6253 25.7131 22.5481C27.2656 20.9937 28.4375 18.7859 28.4375 16.25C28.4375 11.6187 24.6256 7.79749 20 7.84062ZM20 9.71562C23.6234 9.66499 26.5625 12.6312 26.5625 16.25C26.5625 18.2131 25.6531 19.9419 24.3941 21.2L24.4241 21.23C23.1729 22.3838 22.3638 23.9382 22.1366 25.625H18.0359C17.8297 24.0181 17.1406 22.4628 15.8384 21.3472C14.1819 19.9409 13.1947 17.8222 13.5247 15.4297C13.9344 12.4766 16.3306 10.1019 19.2669 9.77655C19.5093 9.74275 19.7534 9.72272 19.9981 9.71655L20 9.71562ZM6.875 16.25V18.125H9.6875V16.25H6.875ZM30.3125 16.25V18.125H33.125V16.25H30.3125ZM12.0312 23.8381L10.0681 25.8003L11.3872 27.1194L13.3484 25.1562L12.0312 23.8381ZM27.9688 23.8381L26.6506 25.1562L28.6128 27.1194L29.9319 25.8003L27.9688 23.8381ZM18.125 27.5H21.875V29.375H18.125V27.5Z" fill="white"/>
</svg>
