<svg width="87" height="23" viewBox="0 0 87 23" fill="none" xmlns="http://www.w3.org/2000/svg">
<path d="M15.4125 22H0.3085V0.751999H3.3805V19.28H15.4125V22ZM28.0053 0.431999C34.4693 0.431999 39.0773 4.976 39.0773 11.376C39.0773 17.776 34.4693 22.32 28.0053 22.32C21.5093 22.32 16.9333 17.776 16.9333 11.376C16.9333 4.976 21.5093 0.431999 28.0053 0.431999ZM28.0053 3.152C23.3013 3.152 20.0373 6.544 20.0373 11.376C20.0373 16.208 23.3013 19.6 28.0053 19.6C32.7093 19.6 35.9733 16.208 35.9733 11.376C35.9733 6.544 32.7093 3.152 28.0053 3.152ZM53.0508 3.152C47.8988 3.152 44.4748 6.384 44.4748 11.376C44.4748 16.368 47.8988 19.6 53.0508 19.6C54.8428 19.6 56.3787 19.312 57.7228 18.736V13.808H51.5788V11.088H60.6668V20.272C58.6508 21.68 56.2188 22.32 52.9228 22.32C45.9468 22.32 41.3708 18.032 41.3708 11.376C41.3708 4.72 45.9468 0.431999 52.9228 0.431999C56.2188 0.431999 58.6508 1.072 60.6668 2.48V5.872H60.5068C58.5548 4.016 56.1868 3.152 53.0508 3.152ZM74.974 0.431999C81.438 0.431999 86.046 4.976 86.046 11.376C86.046 17.776 81.438 22.32 74.974 22.32C68.478 22.32 63.902 17.776 63.902 11.376C63.902 4.976 68.478 0.431999 74.974 0.431999ZM74.974 3.152C70.27 3.152 67.006 6.544 67.006 11.376C67.006 16.208 70.27 19.6 74.974 19.6C79.678 19.6 82.942 16.208 82.942 11.376C82.942 6.544 79.678 3.152 74.974 3.152Z" fill="#F3983A"/>
</svg>
